# xmcd
#
# Track frame offsets:
#	150
#	27529
#	56804
#	76328
#	101480
#	131044
#	156161
#	181972
#	202655
#	229103
#
# Disc length: 3433 seconds
#
# Revision: 0
# Processed by: cddbd v1.5.1PL0 Copyright (c) Steve Scherf et al.
# Submitted via: audiograbber 1.83.01
#
DISCID=7e0d670a
DTITLE=Various Artist - KRHTIKA
DYEAR=1900
DGENRE=
TTITLE0=MALEVIZIWTIKOS
TTITLE1=A POYXEI NIOTI
TTITLE2=ANWGEIAKOS PIDIXTOS
TTITLE3=KATHE POY VGEI TO GELIO MOY
TTITLE4=O XWRISMOS
TTITLE5=STOY NOY TH SYNNEFIA
TTITLE6=SKEPSI KRYFH TOY LOGISMOY
TTITLE7=STI GEITONIA TOY ERONTA
TTITLE8=STSH ROKAS THN KORFH
TTITLE9=KASTRINOS
EXTD=
EXTT0=
EXTT1=
EXTT2=
EXTT3=
EXTT4=
EXTT5=
EXTT6=
EXTT7=
EXTT8=
EXTT9=
PLAYORDER=
